<?xml version="1.0" standalone="yes"?>
<svg xmlns="http://www.w3.org/2000/svg" width="633" height="1220">
<path style="fill:#FDE047; stroke:none;" d="M527 1.63818C518.921 3.95984 510.7 10.2421 504 15.1552C487.292 27.4071 471.602 42.5927 458.888 59C451.791 68.1595 444.632 76.691 446.185 89C447.386 98.5162 456.217 102.162 463 107.425C478.272 119.275 492.653 132.519 509 142.946C514.801 146.646 523.584 154.688 530.999 152.292C543.136 148.372 548.413 128.8 551.576 118C557.671 97.1836 563.132 76.5197 566.13 55C567.289 46.6824 569.421 37.3795 567.61 29C563.803 11.3928 545.542 -3.68994 527 1.63818M519 86C515.194 84.2567 512.147 81.6094 509 78.8448C506.386 76.5482 500.29 72.8715 500.192 68.9854C500.118 66.0383 503.336 62.9994 505.171 61.0154C510.782 54.9468 525.698 44.9755 528.591 59.0007C528.935 60.6671 528.797 62.3322 528.557 64C528.114 67.0774 527.325 70.1326 526.123 73C524.203 77.5841 521.399 81.6737 519 86M447 186C439.381 188.252 430.879 187.55 423 188.089C411.256 188.894 399.81 190 388 190C379.307 190 366.559 188.875 359.015 193.819C341.302 205.425 350.248 225.503 362 236.985C370.511 245.301 380.391 251.29 390 258.141C405.346 269.083 420.506 280.294 436 291.025C447.457 298.959 460.706 310.608 475 312.787C492.287 315.423 506.657 295.21 500.671 279C497.351 270.013 489.18 263.999 482 258.195C473.96 251.695 465.928 244.215 457 239C475.785 228.82 502.765 240.256 519.96 225.66C532.251 215.226 532.015 198.544 523.637 186C516.715 175.635 507.19 167.103 498 158.831C487.636 149.503 477.236 140.17 466 131.884C457.2 125.395 447.521 117.818 436 118.054C417.113 118.441 403.281 134.573 411.363 153C417.261 166.448 434.036 179.833 447 186M321 253.465C298.791 257.47 282.155 286.561 287.927 308C290.965 319.282 297.851 330.064 303.8 340C319.407 366.068 340.076 389.134 358.79 413C366.702 423.089 374.711 434.067 384.039 442.896C388.524 447.141 394.635 450.582 401 449.517C405.69 448.732 409.586 446.12 412.985 442.907C415.747 440.295 418.009 437.396 419.723 434C427.433 418.727 417.939 407.276 409.294 395C406.641 391.233 402.065 385.758 401.634 381C401.258 376.842 405.542 371.403 407.615 368C410.353 363.505 415.618 353.027 421.04 351.637C424.247 350.815 428.168 353.367 431 354.579C441.163 358.927 453.923 370.755 464.826 361.581C466.984 359.765 468.691 357.328 470.25 355C472.523 351.607 474.218 347.882 475.48 344C476.793 339.96 478.446 334.218 477.308 330C476.041 325.305 471.892 321.969 468 319.44C460.656 314.668 452.689 310.422 445 306.231C419.505 292.334 395.466 276.81 369 264.691C354.588 258.092 337.304 250.524 321 253.465M383 328C380.12 333.783 375.763 338.761 372 344C365.384 340.62 359.555 331.243 355.613 325C354.329 322.965 352.18 318.797 355.333 317.238C357.905 315.966 361.671 318.307 364 319.269C370.516 321.962 376.882 324.429 383 328M323 472L321 472C316.498 456.371 305.827 442.911 297.873 429C288.438 412.498 280.657 392.021 265.83 379.394C250.417 366.268 227.389 387.465 225.29 403C224.095 411.846 227.357 418.166 230.772 426C235.051 435.813 239.962 445.417 244.753 455C250.003 465.499 253.874 476.568 259.258 487C268.356 504.623 279.232 521.51 288.691 539C295.474 551.542 301.081 565.082 308.966 576.996C310.344 579.078 311.998 580.883 314.015 582.362C328.113 592.692 342.245 579.969 349.536 568C362.876 546.103 371.953 520.74 381.449 497C386.971 483.194 392.783 467.712 387.452 453C386.056 449.146 383.794 445.946 380.957 443.015C378.573 440.552 375.96 438.234 373 436.483C356.144 426.516 343.37 444.346 334.35 456C330.369 461.142 325.551 465.974 323 472M568 431.428C540.152 435.416 518.982 451.877 501.435 473C494.736 481.065 489.204 489.986 482.41 497.999C479.697 501.199 476.354 505.493 472.001 506.427C467.984 507.29 464.884 503.92 465.336 499.999C466.064 493.69 471.236 488.801 471.62 482C472.311 469.781 457.666 461.892 447 466.225C437.12 470.238 429.945 479.639 425.695 489C421.92 497.315 418.637 506.714 419.047 516C419.769 532.333 432.799 548.084 448 552.819C482.127 563.448 502.603 533.208 522.054 511C529.405 502.607 544.409 483.952 557.956 491.179C566.304 495.633 560.541 504.191 555.957 508.996C543.848 521.688 525.125 524.916 515.105 540C507.913 550.826 509.694 565.391 525 566.895C536.949 568.069 548.145 563.794 559 559.396C584.422 549.096 603.872 528.072 617.796 505C624.507 493.88 630.625 481.098 631.829 468C634.159 442.669 608.719 435.641 589 432.561C581.916 431.455 575.2 430.397 568 431.428M245 612C242.52 606.043 237.524 600.295 241.487 594C246.898 585.405 254.621 579.15 261.91 572.285C266.395 568.061 271.838 563.086 273.62 557C276.591 546.854 273.135 536.924 268.204 528C265.458 523.029 261.793 517.948 255.999 516.533C246.815 514.291 238.196 519.293 231 524.489C222.996 530.269 215.228 536.563 207 542C206.423 538.092 203.328 532.849 204.392 529C205.84 523.759 211.912 518.354 215.116 514C225.228 500.257 236.932 485.019 233.532 467C229.18 443.932 205.94 431.667 187.09 447.669C180.738 453.062 176.99 460.963 172.799 468C163.889 482.963 154.728 499.174 149.91 516C145.571 531.152 155.033 543.388 160.547 557C171.515 584.074 180.966 611.778 191.615 639C197.547 654.162 207.134 675.501 224 680.779C254.856 690.435 284.226 657.898 300.522 636C306.263 628.285 314.716 618.033 314.945 608C315.063 602.858 313.451 596.553 311.085 592C308.096 586.247 302.586 576.621 295.985 574.667C289.196 572.658 283.004 577.868 278 581.627C265.977 590.658 255.575 601.396 245 612M386 595C376.269 590.954 362.81 581.456 352 583.631C330.02 588.055 319.64 618.54 334.301 634.961C338.474 639.634 343.717 642.302 349 645.453C357.631 650.601 366.164 655.518 375 660.309C396.001 671.694 417.416 681.673 439 691.889C444.425 694.457 449.448 697.788 455 700.124C460.014 702.234 466.514 704.34 472 703.685C488.981 701.66 498.15 682.565 493.561 667C489.309 652.578 471.864 641.994 458 638L458 636C481.205 631.692 514.549 633.589 529.791 612C536.031 603.161 541.717 592.076 534.197 582.093C528.187 574.115 518.01 573.997 509 574C487.305 574.008 464.764 580.165 444 586C439.867 576.408 433.912 567.395 429.248 558C423.867 547.162 419.749 535.821 414.244 525C410.02 516.698 404.068 509.616 394 509.264C382.048 508.846 373.805 521.29 372.209 532C368.923 554.054 381.166 574.106 386 595M110 662C117.411 634.06 131.682 608.671 139.579 581C141.963 572.644 148.996 558.357 143.258 550.109C139.366 544.516 131.393 545.469 126 547.935C114.489 553.198 106.378 562.327 98.4645 572C94.586 576.741 91.7326 582.168 87.9853 587C66.6354 614.532 45.5635 641.996 24.8449 670C15.0222 683.277 0.0468321 697.127 1.04321 715C2.14236 734.716 26.1338 742.954 43 741.675C62.1892 740.221 79.101 733.619 97 727.345C118.112 719.945 139.29 712.854 160 704.397C169.773 700.406 180.405 694.366 187.985 686.96C190.845 684.166 193.886 681.047 194.721 677C197.995 661.152 187.153 645.034 171 644.093C159.518 643.424 147.544 648.69 137 652.459C128.102 655.64 118.44 657.741 110 662M299 661.557C290.559 663.728 282.084 671.561 276.59 678.004C261.996 695.119 250.171 721.919 253.92 745C255.874 757.031 258.199 768.294 264.337 779C276.616 800.418 294.659 813.867 317 823.421C325.467 827.042 335.677 830.751 345 830.946C352.175 831.096 360.159 828.993 367 826.964C405.369 815.583 432.069 780.742 434.975 741C435.292 736.663 436.228 732.352 435.713 728C433.457 708.94 416.984 684.153 396 683.109C392.254 682.922 389.107 684.259 386 686.248C374.355 693.7 372.48 707.121 373.039 720C373.214 724.03 374.282 727.944 373.815 732C373.345 736.073 371.903 740.286 370.208 744C365.232 754.897 353.736 765.983 341 761.451C336.982 760.022 333.18 757.694 330.039 754.815C320.777 746.324 316.834 734.277 319.903 722C321.289 716.453 324.298 711.47 325.961 706C328.071 699.057 329.448 690.234 329.782 683C330.442 668.712 311.58 658.322 299 661.557M295 895C305.725 897.243 316.752 904.654 328 903.671C349.131 901.825 354.674 875.819 342.471 861.089C337.035 854.529 328.966 850.177 322 845.481C311.38 838.323 300.907 831.165 290 824.424C276.487 816.074 262.334 811.981 247 808.576C238.627 806.716 230.628 804.99 222 805C205.179 805.021 185.135 810.602 180.351 829C177.552 839.766 180.155 851.311 182.083 862C190.136 906.649 210.7 951.06 231.633 991C234.087 995.682 237.304 1001.87 241.329 1005.36C249.458 1012.41 261.386 1009.61 268.711 1002.67C282.427 989.672 280.097 971.968 273.597 956C271.704 951.349 265.627 943.062 266.661 938C267.543 933.687 272.708 929.471 275.265 926C282.236 916.538 290.82 906.044 295 895M254 877C251.611 882.049 248.245 886.47 245 891L243 891C240.496 887.204 231.588 875.059 236.607 870.708C240.608 867.24 250.661 874.798 254 877M146 1041C144.775 1031.31 146.329 1017.07 139.442 1009.21C134.118 1003.14 126.69 1004.87 121.015 1009.24C110.324 1017.47 107.1 1028.59 103.559 1041C96.2671 1066.55 93.9557 1094.7 90.7153 1121C87.7952 1144.7 83.179 1168.06 83.179 1192C83.179 1205.12 89.2069 1223.5 106 1217.9C108.74 1216.98 111.571 1215.66 113.961 1214.03C117.988 1211.29 120.65 1206.98 123.33 1203C141.169 1176.54 143.046 1146.66 146.715 1116C148.326 1102.53 151.709 1092.6 159.053 1081C164.893 1071.78 173.671 1062.45 177 1052L179 1052C181.977 1061.34 190.987 1071.33 201 1073.14C216.497 1075.94 232.048 1062.68 234.904 1048C237.546 1034.43 233.362 1022.67 228.858 1010C219.542 983.783 203.946 960.191 187.374 938C183.203 932.414 179.409 925.849 173.961 921.39C165.882 914.779 151.495 913.405 144.394 922.044C136.377 931.797 140.122 944.052 142.576 955C145.642 968.678 150.524 982.852 155.424 996C157.54 1001.68 162.772 1009.95 162.684 1016C162.64 1019 160.254 1021.64 158.67 1024C154.808 1029.76 151.377 1036.56 146 1041z"/>
</svg>
